<svg width="37" height="36" viewBox="0 0 37 36" fill="none" xmlns="http://www.w3.org/2000/svg">
<path d="M27.1555 5.14386C27.8585 4.85095 28.6611 5.01498 29.2001 5.54808L32.9493 9.29734C33.3008 9.64884 33.5 10.1234 33.5 10.6213C33.5 11.1193 33.3008 11.5938 32.9493 11.9453L29.2001 15.6945C28.6611 16.2335 27.8585 16.3917 27.1555 16.0988C26.4525 15.8058 25.9956 15.1263 25.9956 14.3647V12.5018H24.121C23.5293 12.5018 22.9728 12.7771 22.6213 13.2516L20.1374 16.5616L17.7941 13.4391L19.6219 11.0021C20.6822 9.5844 22.3518 8.75253 24.121 8.75253H25.9956V6.8779C25.9956 6.12218 26.4525 5.43677 27.1555 5.14386ZM13.1075 19.6898L15.4508 22.8123L13.623 25.2493C12.5627 26.667 10.8931 27.4989 9.1239 27.4989H5.37463C4.33773 27.4989 3.5 26.6611 3.5 25.6242C3.5 24.5873 4.33773 23.7496 5.37463 23.7496H9.1239C9.71558 23.7496 10.2721 23.4743 10.6236 22.9997L13.1075 19.6898ZM29.1942 30.7033C28.6552 31.2423 27.8527 31.4004 27.1497 31.1075C26.4467 30.8146 25.9897 30.1351 25.9897 29.3735V27.4989H24.121C22.3518 27.4989 20.6822 26.667 19.6219 25.2493L10.6236 13.2516C10.2721 12.7771 9.71558 12.5018 9.1239 12.5018H5.37463C4.33773 12.5018 3.5 11.6641 3.5 10.6272C3.5 9.59026 4.33773 8.75253 5.37463 8.75253H9.1239C10.8931 8.75253 12.5627 9.5844 13.623 11.0021L22.6213 22.9997C22.9728 23.4743 23.5293 23.7496 24.121 23.7496H25.9956V21.875C25.9956 21.1193 26.4525 20.4338 27.1555 20.1409C27.8585 19.848 28.6611 20.012 29.2001 20.5451L32.9493 24.2944C33.3008 24.6459 33.5 25.1204 33.5 25.6184C33.5 26.1163 33.3008 26.5908 32.9493 26.9423L29.2001 30.6916L29.1942 30.7033Z" fill="#3c90cd"/>
</svg>
