<svg width="37" height="36" viewBox="0 0 37 36" fill="none" xmlns="http://www.w3.org/2000/svg">
<path d="M18.5 33C22.4782 33 26.2936 31.4196 29.1066 28.6066C31.9196 25.7936 33.5 21.9782 33.5 18C33.5 14.0218 31.9196 10.2064 29.1066 7.3934C26.2936 4.58035 22.4782 3 18.5 3C14.5218 3 10.7064 4.58035 7.8934 7.3934C5.08035 10.2064 3.5 14.0218 3.5 18C3.5 21.9782 5.08035 25.7936 7.8934 28.6066C10.7064 31.4196 14.5218 33 18.5 33ZM13.4492 12.6855C13.9121 11.3789 15.1543 10.5 16.543 10.5H19.959C22.0039 10.5 23.6562 12.1582 23.6562 14.1973C23.6562 15.5215 22.9473 16.7461 21.7988 17.4082L19.9062 18.4922C19.8945 19.2539 19.2676 19.875 18.5 19.875C17.7207 19.875 17.0938 19.248 17.0938 18.4688V17.6777C17.0938 17.1738 17.3633 16.7109 17.8027 16.459L20.3984 14.9707C20.6738 14.8125 20.8438 14.5195 20.8438 14.2031C20.8438 13.7109 20.4453 13.3184 19.959 13.3184H16.543C16.3438 13.3184 16.168 13.4414 16.1035 13.6289L16.0801 13.6992C15.8223 14.4316 15.0137 14.8125 14.2871 14.5547C13.5605 14.2969 13.1738 13.4883 13.4316 12.7617L13.4551 12.6914L13.4492 12.6855ZM16.625 23.625C16.625 23.1277 16.8225 22.6508 17.1742 22.2992C17.5258 21.9475 18.0027 21.75 18.5 21.75C18.9973 21.75 19.4742 21.9475 19.8258 22.2992C20.1775 22.6508 20.375 23.1277 20.375 23.625C20.375 24.1223 20.1775 24.5992 19.8258 24.9508C19.4742 25.3025 18.9973 25.5 18.5 25.5C18.0027 25.5 17.5258 25.3025 17.1742 24.9508C16.8225 24.5992 16.625 24.1223 16.625 23.625Z" fill="#CC9730"/>
</svg>
