<svg width="37" height="36" viewBox="0 0 37 36" fill="none" xmlns="http://www.w3.org/2000/svg">
<path d="M22.25 6.75C22.25 5.75544 21.8549 4.80161 21.1516 4.09835C20.4484 3.39509 19.4946 3 18.5 3C17.5054 3 16.5516 3.39509 15.8483 4.09835C15.1451 4.80161 14.75 5.75544 14.75 6.75C14.75 7.74456 15.1451 8.69839 15.8483 9.40165C16.5516 10.1049 17.5054 10.5 18.5 10.5C19.4946 10.5 20.4484 10.1049 21.1516 9.40165C21.8549 8.69839 22.25 7.74456 22.25 6.75ZM16.625 12.375C14.5566 12.375 12.875 14.0566 12.875 16.125V18.9375C12.875 19.9746 13.7129 20.8125 14.75 20.8125H14.8555L15.5059 26.6426C15.6113 27.5918 16.4141 28.3125 17.3691 28.3125H19.6367C20.5918 28.3125 21.3945 27.5918 21.5 26.6426L22.1445 20.8125H22.25C23.2871 20.8125 24.125 19.9746 24.125 18.9375V16.125C24.125 14.0566 22.4434 12.375 20.375 12.375H16.625ZM11.252 26.0977C12.0137 25.957 12.5234 25.2246 12.3828 24.4629C12.2422 23.7012 11.5098 23.1914 10.748 23.332C8.84961 23.6777 7.17969 24.1641 5.94336 24.7852C5.32813 25.0957 4.75391 25.4707 4.31445 25.9336C3.875 26.4082 3.5 27.0527 3.5 27.8438C3.5 29.0977 4.4082 29.959 5.20508 30.4805C6.06641 31.043 7.21484 31.4941 8.50977 31.8516C11.1289 32.5723 14.6562 33 18.5 33C22.3438 33 25.8711 32.5723 28.4844 31.8516C29.7793 31.4941 30.9336 31.043 31.7891 30.4805C32.5918 29.959 33.4941 29.0977 33.4941 27.8438C33.4941 27.0527 33.1191 26.4082 32.6738 25.9336C32.2344 25.4707 31.6602 25.0957 31.0449 24.7852C29.8145 24.1641 28.1445 23.6777 26.2402 23.332C25.4785 23.1914 24.7461 23.7012 24.6055 24.4629C24.4648 25.2246 24.9746 25.957 25.7363 26.0977C27.5059 26.4199 28.8828 26.8477 29.7793 27.2988C29.9668 27.3926 30.1191 27.4805 30.2422 27.5625C30.4531 27.7031 30.4531 27.9844 30.2422 28.125C29.7266 28.459 28.8887 28.8164 27.7227 29.1387C25.4316 29.7773 22.1621 30.1875 18.5 30.1875C14.8379 30.1875 11.5684 29.7773 9.25977 29.1387C8.09375 28.8164 7.25586 28.459 6.74023 28.125C6.5293 27.9844 6.5293 27.7031 6.74023 27.5625C6.86328 27.4805 7.02148 27.3926 7.20313 27.2988C8.09961 26.8477 9.47656 26.4258 11.2461 26.0977H11.252Z" fill="#3c90cd"/>
</svg>
