<svg width="37" height="36" viewBox="0 0 37 36" fill="none" xmlns="http://www.w3.org/2000/svg">
<path d="M31.3988 15.8579H31.9484C32.8082 15.8579 33.5 15.1415 33.5 14.251V5.68076C33.5 5.0313 33.125 4.4421 32.5432 4.19437C31.9613 3.94663 31.2954 4.08054 30.8493 4.54253L28.1598 7.32785C22.4963 1.53626 13.3739 1.55635 7.74277 7.39481C2.08574 13.2534 2.08574 22.7475 7.74277 28.6061C13.3998 34.4646 22.5674 34.4646 28.2244 28.6061C29.0326 27.7692 29.0326 26.41 28.2244 25.573C27.4163 24.7361 26.1038 24.7361 25.2957 25.573C21.255 29.7577 14.7058 29.7577 10.665 25.573C6.62429 21.3884 6.62429 14.6058 10.665 10.4212C14.6864 6.25658 21.1839 6.23649 25.231 10.3542L22.5739 13.1127C22.1278 13.5747 21.9985 14.2644 22.2377 14.867C22.4769 15.4696 23.0458 15.8579 23.6729 15.8579H31.3988Z" fill="#3c90cd"/>
</svg>
