<svg width="37" height="36" viewBox="0 0 37 36" fill="none" xmlns="http://www.w3.org/2000/svg">
<path d="M27.5715 16.5518L28.2344 15.889L26.2455 13.9007L22.6022 10.2583L20.6133 8.26997L19.9503 8.93275L18.6244 10.2583L6.9375 21.942C6.32734 22.552 5.88145 23.3086 5.63504 24.1356L3.55815 31.1974C3.41148 31.6901 3.54642 32.2238 3.91603 32.5875C4.28565 32.9511 4.81367 33.086 5.30649 32.9453L12.3644 30.869C13.1916 30.6226 13.9485 30.1769 14.5586 29.5669L26.2455 17.8832L27.5715 16.5518ZM12.8866 26.4289L12.3527 27.7604C12.118 27.9422 11.854 28.0771 11.5724 28.1651L6.98444 29.5141L8.33383 24.9333C8.41596 24.6459 8.55677 24.3819 8.73865 24.1532L10.0704 23.6195V25.4964C10.0704 26.0125 10.4929 26.4348 11.0091 26.4348H12.8866V26.4289ZM24.7788 4.09974L23.934 4.95021L22.6081 6.27577L21.9392 6.93855L23.9281 8.92688L27.5715 12.5692L29.5604 14.5576L30.2233 13.8948L31.5492 12.5692L32.4 11.7188C33.8667 10.2524 33.8667 7.877 32.4 6.41067L30.0942 4.09974C28.6275 2.63342 26.2514 2.63342 24.7847 4.09974H24.7788ZM21.9979 13.9534L13.5495 22.3995C13.1858 22.7631 12.5873 22.7631 12.2236 22.3995C11.8598 22.0358 11.8598 21.4376 12.2236 21.0739L20.672 12.6279C21.0357 12.2642 21.6341 12.2642 21.9979 12.6279C22.3616 12.9915 22.3616 13.5898 21.9979 13.9534Z" fill="#3c90cd"/>
</svg>
