<svg width="37" height="36" viewBox="0 0 37 36" fill="none" xmlns="http://www.w3.org/2000/svg">
<path d="M11 3C8.93164 3 7.25 4.68164 7.25 6.75V12.375H11V6.75H24.2832L26 8.4668V12.375H29.75V8.4668C29.75 7.4707 29.3574 6.51562 28.6543 5.8125L26.9375 4.0957C26.2344 3.39258 25.2793 3 24.2832 3H11ZM26 23.625V25.5V29.25H11V25.5V24.5625V23.625H26ZM29.75 25.5H31.625C32.6621 25.5 33.5 24.6621 33.5 23.625V18C33.5 15.9316 31.8184 14.25 29.75 14.25H7.25C5.18164 14.25 3.5 15.9316 3.5 18V23.625C3.5 24.6621 4.33789 25.5 5.375 25.5H7.25V29.25C7.25 31.3184 8.93164 33 11 33H26C28.0684 33 29.75 31.3184 29.75 29.25V25.5ZM28.8125 17.5312C29.1855 17.5312 29.5431 17.6794 29.8069 17.9431C30.0706 18.2069 30.2188 18.5645 30.2188 18.9375C30.2188 19.3105 30.0706 19.6681 29.8069 19.9319C29.5431 20.1956 29.1855 20.3438 28.8125 20.3438C28.4395 20.3438 28.0819 20.1956 27.8181 19.9319C27.5544 19.6681 27.4062 19.3105 27.4062 18.9375C27.4062 18.5645 27.5544 18.2069 27.8181 17.9431C28.0819 17.6794 28.4395 17.5312 28.8125 17.5312Z" fill="#3c90cd"/>
</svg>
