<svg width="37" height="36" viewBox="0 0 37 36" fill="none" xmlns="http://www.w3.org/2000/svg">
<path d="M11 6.75C11 8.82107 9.32107 10.5 7.25 10.5C5.17893 10.5 3.5 8.82107 3.5 6.75C3.5 4.67893 5.17893 3 7.25 3C9.32107 3 11 4.67893 11 6.75Z" fill="#3c90cd"/>
<path d="M33.5 6.75C33.5 8.82107 31.8211 10.5 29.75 10.5C27.6789 10.5 26 8.82107 26 6.75C26 4.67893 27.6789 3 29.75 3C31.8211 3 33.5 4.67893 33.5 6.75Z" fill="#3c90cd"/>
<path d="M27.0714 17.4643C27.0714 19.5354 25.3925 21.2143 23.3214 21.2143C21.2504 21.2143 19.5714 19.5354 19.5714 17.4643C19.5714 15.3932 21.2504 13.7143 23.3214 13.7143C25.3925 13.7143 27.0714 15.3932 27.0714 17.4643Z" fill="#3c90cd"/>
<path d="M33.5 29.25C33.5 31.3211 31.8211 33 29.75 33C27.6789 33 26 31.3211 26 29.25C26 27.1789 27.6789 25.5 29.75 25.5C31.8211 25.5 33.5 27.1789 33.5 29.25Z" fill="#3c90cd"/>
<path d="M11 29.25C11 31.3211 9.32107 33 7.25 33C5.17893 33 3.5 31.3211 3.5 29.25C3.5 27.1789 5.17893 25.5 7.25 25.5C9.32107 25.5 11 27.1789 11 29.25Z" fill="#3c90cd"/>
<path d="M5.64286 7.25615H8.85714V29.8157H5.64286V7.25615Z" fill="#3c90cd"/>
<path d="M6.17857 30.8571V27.6429H30.5011V30.8571H6.17857Z" fill="#3c90cd"/>
<path d="M6.17857 8.35714V5.14286H31.8929V8.35714H6.17857Z" fill="#3c90cd"/>
<path d="M21.9824 18.4664L24.7661 16.8592L31.3186 28.2086L28.535 29.8157L21.9824 18.4664Z" fill="#3c90cd"/>
</svg>
