<svg width="30" height="30" viewBox="0 0 30 30" fill="none" xmlns="http://www.w3.org/2000/svg">
<path d="M16.063 25.5057C18.3639 22.7399 23.6117 16.0366 23.6117 12.2714C23.6117 7.7049 19.7544 4 15 4C10.2456 4 6.38831 7.7049 6.38831 12.2714C6.38831 16.0366 11.6361 22.7399 13.937 25.5057C14.4887 26.1648 15.5113 26.1648 16.063 25.5057ZM15 9.51427C15.7613 9.51427 16.4915 9.80475 17.0298 10.3218C17.5681 10.8389 17.8706 11.5402 17.8706 12.2714C17.8706 13.0026 17.5681 13.7039 17.0298 14.221C16.4915 14.7381 15.7613 15.0285 15 15.0285C14.2387 15.0285 13.5085 14.7381 12.9702 14.221C12.4319 13.7039 12.1294 13.0026 12.1294 12.2714C12.1294 11.5402 12.4319 10.8389 12.9702 10.3218C13.5085 9.80475 14.2387 9.51427 15 9.51427Z" fill="black"/>
</svg>
