<svg width="30" height="30" viewBox="0 0 30 30" fill="none" xmlns="http://www.w3.org/2000/svg">
<path d="M6.4793 12.293L6.8832 12.9977C7.23984 13.6207 7.82422 14.0805 8.51602 14.2781L11.0039 14.9871C11.743 15.1977 12.25 15.8723 12.25 16.6414V18.3559C12.25 18.8285 12.5164 19.2582 12.9375 19.4687C13.3586 19.6793 13.625 20.109 13.625 20.5816V22.2574C13.625 22.9277 14.2652 23.4133 14.9098 23.2285C15.6016 23.0309 16.1387 22.4766 16.3148 21.7762L16.4352 21.2949C16.6156 20.5687 17.0883 19.9457 17.7371 19.5762L18.0852 19.3785C18.7297 19.0133 19.125 18.3258 19.125 17.5867V17.2301C19.125 16.6844 18.9059 16.1602 18.5191 15.7734L18.3516 15.6059C17.9648 15.2191 17.4406 15 16.8949 15H15.043C14.566 15 14.0934 14.8754 13.6766 14.6391L12.1941 13.7926C12.0094 13.6852 11.8676 13.5133 11.7988 13.3113C11.6613 12.8988 11.8461 12.452 12.2371 12.2586L12.4906 12.1297C12.7742 11.9879 13.1051 11.9621 13.4059 12.0652L14.4027 12.3961C14.7551 12.5121 15.1418 12.3789 15.3437 12.0738C15.5457 11.773 15.5242 11.3734 15.2922 11.0941L14.7078 10.3937C14.2781 9.87812 14.2824 9.12617 14.7207 8.61914L15.3953 7.83281C15.7734 7.39023 15.8336 6.75859 15.5457 6.25586L15.4426 6.07539C15.2922 6.0668 15.1461 6.0625 14.9957 6.0625C11.0082 6.0625 7.62656 8.6793 6.4793 12.293ZM23.9375 15C23.9375 13.4187 23.525 11.932 22.8031 10.6387L21.7031 11.0812C21.0285 11.352 20.6805 12.1039 20.9082 12.7914L21.6344 14.9699C21.7848 15.4168 22.15 15.7563 22.6055 15.868L23.8559 16.1816C23.9074 15.7949 23.9332 15.3996 23.9332 15H23.9375ZM4 15C4 12.0826 5.15893 9.28473 7.22183 7.22183C9.28473 5.15893 12.0826 4 15 4C17.9174 4 20.7153 5.15893 22.7782 7.22183C24.8411 9.28473 26 12.0826 26 15C26 17.9174 24.8411 20.7153 22.7782 22.7782C20.7153 24.8411 17.9174 26 15 26C12.0826 26 9.28473 24.8411 7.22183 22.7782C5.15893 20.7153 4 17.9174 4 15Z" fill="black"/>
</svg>
