<svg width="30" height="30" viewBox="0 0 30 30" fill="none" xmlns="http://www.w3.org/2000/svg">
<path d="M15 4C15.7605 4 16.375 4.61445 16.375 5.375V6.86602C19.8297 7.4418 22.5582 10.1703 23.134 13.625H24.625C25.3855 13.625 26 14.2395 26 15C26 15.7605 25.3855 16.375 24.625 16.375H23.134C22.5582 19.8297 19.8297 22.5582 16.375 23.134V24.625C16.375 25.3855 15.7605 26 15 26C14.2395 26 13.625 25.3855 13.625 24.625V23.134C10.1703 22.5582 7.4418 19.8297 6.86602 16.375H5.375C4.61445 16.375 4 15.7605 4 15C4 14.2395 4.61445 13.625 5.375 13.625H6.86602C7.4418 10.1703 10.1703 7.4418 13.625 6.86602V5.375C13.625 4.61445 14.2395 4 15 4ZM9.5 15C9.5 16.4587 10.0795 17.8576 11.1109 18.8891C12.1424 19.9205 13.5413 20.5 15 20.5C16.4587 20.5 17.8576 19.9205 18.8891 18.8891C19.9205 17.8576 20.5 16.4587 20.5 15C20.5 13.5413 19.9205 12.1424 18.8891 11.1109C17.8576 10.0795 16.4587 9.5 15 9.5C13.5413 9.5 12.1424 10.0795 11.1109 11.1109C10.0795 12.1424 9.5 13.5413 9.5 15ZM15 11.5625C15.9117 11.5625 16.786 11.9247 17.4307 12.5693C18.0753 13.214 18.4375 14.0883 18.4375 15C18.4375 15.9117 18.0753 16.786 17.4307 17.4307C16.786 18.0753 15.9117 18.4375 15 18.4375C14.0883 18.4375 13.214 18.0753 12.5693 17.4307C11.9247 16.786 11.5625 15.9117 11.5625 15C11.5625 14.0883 11.9247 13.214 12.5693 12.5693C13.214 11.9247 14.0883 11.5625 15 11.5625Z" fill="black"/>
</svg>
