<svg width="30" height="30" viewBox="0 0 30 30" fill="none" xmlns="http://www.w3.org/2000/svg">
<path d="M7.22169 9.37843C6.60707 8.76381 5.61397 8.76381 4.99935 9.37843C4.38474 9.99304 4.38474 10.9861 4.99935 11.6008L18.3334 24.9348C18.948 25.5494 19.9411 25.5494 20.5557 24.9348C21.1703 24.3202 21.1703 23.3271 20.5557 22.7124L7.22169 9.37843ZM11.6664 4.93375C11.0517 4.31914 10.0586 4.31914 9.44402 4.93375C8.82941 5.54837 8.82941 6.54148 9.44402 7.15609L22.778 20.4901C23.3927 21.1047 24.3858 21.1047 25.0004 20.4901C25.615 19.8755 25.615 18.8824 25.0004 18.2678L11.6664 4.93375Z" fill="black"/>
</svg>
