<svg width="30" height="30" viewBox="0 0 30 30" fill="none" xmlns="http://www.w3.org/2000/svg">
<path d="M13.9827 4.22239C14.6277 3.92587 15.3724 3.92587 16.0174 4.22239L25.4809 8.56265C25.8488 8.73025 26.0826 9.09552 26.0826 9.49946C26.0826 9.90341 25.8488 10.2687 25.4809 10.4363L16.0174 14.7765C15.3724 15.0731 14.6277 15.0731 13.9827 14.7765L4.51923 10.4363C4.15125 10.2644 3.91748 9.89911 3.91748 9.49946C3.91748 9.09981 4.15125 8.73025 4.51923 8.56265L13.9827 4.22239ZM23.1778 13.0061L25.4809 14.0632C25.8488 14.2308 26.0826 14.5961 26.0826 15C26.0826 15.4039 25.8488 15.7692 25.4809 15.9368L16.0174 20.2771C15.3724 20.5736 14.6277 20.5736 13.9827 20.2771L4.51923 15.9368C4.15125 15.7649 3.91748 15.3996 3.91748 15C3.91748 14.6004 4.15125 14.2308 4.51923 14.0632L6.82232 13.0061L13.4026 16.0228C14.4156 16.4869 15.5845 16.4869 16.5975 16.0228L23.1778 13.0061ZM16.5975 21.5233L23.1778 18.5066L25.4809 19.5637C25.8488 19.7313 26.0826 20.0966 26.0826 20.5005C26.0826 20.9045 25.8488 21.2698 25.4809 21.4373L16.0174 25.7776C15.3724 26.0741 14.6277 26.0741 13.9827 25.7776L4.51923 21.4373C4.15125 21.2655 3.91748 20.9002 3.91748 20.5005C3.91748 20.1009 4.15125 19.7313 4.51923 19.5637L6.82232 18.5066L13.4026 21.5233C14.4156 21.9874 15.5845 21.9874 16.5975 21.5233Z" fill="black"/>
</svg>
