<svg width="30" height="30" viewBox="0 0 30 30" fill="none" xmlns="http://www.w3.org/2000/svg">
<path d="M21.8746 12.9362C21.8746 14.9082 21.2344 16.7298 20.1561 18.2077L25.5951 23.651C26.1322 24.1881 26.1322 25.0602 25.5951 25.5972C25.0581 26.1343 24.186 26.1343 23.6489 25.5972L18.2099 20.1539C16.732 21.2365 14.9104 21.8724 12.9384 21.8724C8.002 21.8724 4.0022 17.8726 4.0022 12.9362C4.0022 7.9998 8.002 4 12.9384 4C17.8748 4 21.8746 7.9998 21.8746 12.9362ZM16.3754 11.5614C16.3754 9.66245 14.8373 8.1244 12.9384 8.1244C11.0394 8.1244 9.50139 9.66245 9.50139 11.5614C9.50139 13.658 11.4991 16.356 12.4486 17.516C12.7064 17.8296 13.1704 17.8296 13.4239 17.516C14.3733 16.356 16.3711 13.658 16.3711 11.5614H16.3754ZM11.5636 11.5614C11.5636 11.1968 11.7084 10.8471 11.9663 10.5893C12.2241 10.3314 12.5738 10.1866 12.9384 10.1866C13.303 10.1866 13.6527 10.3314 13.9105 10.5893C14.1683 10.8471 14.3132 11.1968 14.3132 11.5614C14.3132 11.926 14.1683 12.2757 13.9105 12.5335C13.6527 12.7913 13.303 12.9362 12.9384 12.9362C12.5738 12.9362 12.2241 12.7913 11.9663 12.5335C11.7084 12.2757 11.5636 11.926 11.5636 11.5614Z" fill="black"/>
</svg>
