<svg width="30" height="30" viewBox="0 0 30 30" fill="none" xmlns="http://www.w3.org/2000/svg">
<path d="M11.6372 6.2H18.3628C18.5683 6.2 18.7364 6.365 18.7364 6.56667V8.4H11.2636V6.56667C11.2636 6.365 11.4317 6.2 11.6372 6.2ZM9.02172 6.56667V8.4H6.03259C4.3839 8.4 3.04346 9.71542 3.04346 11.3333V15.7333H12.0108H17.9891H26.9565V11.3333C26.9565 9.71542 25.6161 8.4 23.9674 8.4H20.9782V6.56667C20.9782 5.15042 19.8059 4 18.3628 4H11.6372C10.194 4 9.02172 5.15042 9.02172 6.56667ZM26.9565 17.2H17.9891V18.6667C17.9891 19.4779 17.3212 20.1333 16.4945 20.1333H13.5054C12.6787 20.1333 12.0108 19.4779 12.0108 18.6667V17.2H3.04346V23.0667C3.04346 24.6846 4.3839 26 6.03259 26H23.9674C25.6161 26 26.9565 24.6846 26.9565 23.0667V17.2Z" fill="black"/>
</svg>
