<svg width="30" height="30" viewBox="0 0 30 30" fill="none" xmlns="http://www.w3.org/2000/svg">
<path d="M19.125 17.75C22.9234 17.75 26 14.6734 26 10.875C26 10.2176 25.9055 9.58164 25.7336 8.97578C25.6004 8.51172 25.0289 8.40859 24.6895 8.74805L21.3895 12.048C21.2605 12.177 21.0844 12.25 20.9039 12.25H18.4375C18.0594 12.25 17.75 11.9406 17.75 11.5625V9.09609C17.75 8.91562 17.823 8.73945 17.952 8.61055L21.252 5.31055C21.5914 4.97109 21.484 4.39961 21.0242 4.26641C20.4184 4.09453 19.7824 4 19.125 4C15.3266 4 12.25 7.07656 12.25 10.875C12.25 11.6957 12.3961 12.4863 12.6582 13.2168L4.85508 21.0199C4.30937 21.5656 4 22.309 4 23.0824C4 24.6938 5.30625 26 6.91758 26C7.69102 26 8.43438 25.6906 8.98008 25.1449L16.7832 17.3418C17.5137 17.6082 18.3043 17.75 19.125 17.75ZM7.4375 21.5312C7.711 21.5312 7.97331 21.6399 8.1667 21.8333C8.3601 22.0267 8.46875 22.289 8.46875 22.5625C8.46875 22.836 8.3601 23.0983 8.1667 23.2917C7.97331 23.4851 7.711 23.5938 7.4375 23.5938C7.164 23.5938 6.90169 23.4851 6.7083 23.2917C6.5149 23.0983 6.40625 22.836 6.40625 22.5625C6.40625 22.289 6.5149 22.0267 6.7083 21.8333C6.90169 21.6399 7.164 21.5312 7.4375 21.5312Z" fill="black"/>
</svg>
