<svg width="30" height="30" viewBox="0 0 30 30" fill="none" xmlns="http://www.w3.org/2000/svg">
<path d="M8.65396 4C7.48609 4 6.53857 4.92383 6.53857 6.0625V23.9375C6.53857 25.0762 7.48609 26 8.65396 26H12.8847V22.5625C12.8847 21.4238 13.8322 20.5 15.0001 20.5C16.168 20.5 17.1155 21.4238 17.1155 22.5625V26H21.3463C22.5141 26 23.4617 25.0762 23.4617 23.9375V6.0625C23.4617 4.92383 22.5141 4 21.3463 4H8.65396ZM9.35909 14.3125C9.35909 13.9344 9.67639 13.625 10.0642 13.625H11.4745C11.8623 13.625 12.1796 13.9344 12.1796 14.3125V15.6875C12.1796 16.0656 11.8623 16.375 11.4745 16.375H10.0642C9.67639 16.375 9.35909 16.0656 9.35909 15.6875V14.3125ZM14.295 13.625H15.7052C16.0931 13.625 16.4104 13.9344 16.4104 14.3125V15.6875C16.4104 16.0656 16.0931 16.375 15.7052 16.375H14.295C13.9072 16.375 13.5899 16.0656 13.5899 15.6875V14.3125C13.5899 13.9344 13.9072 13.625 14.295 13.625ZM17.8206 14.3125C17.8206 13.9344 18.1379 13.625 18.5258 13.625H19.936C20.3238 13.625 20.6411 13.9344 20.6411 14.3125V15.6875C20.6411 16.0656 20.3238 16.375 19.936 16.375H18.5258C18.1379 16.375 17.8206 16.0656 17.8206 15.6875V14.3125ZM10.0642 8.125H11.4745C11.8623 8.125 12.1796 8.43437 12.1796 8.8125V10.1875C12.1796 10.5656 11.8623 10.875 11.4745 10.875H10.0642C9.67639 10.875 9.35909 10.5656 9.35909 10.1875V8.8125C9.35909 8.43437 9.67639 8.125 10.0642 8.125ZM13.5899 8.8125C13.5899 8.43437 13.9072 8.125 14.295 8.125H15.7052C16.0931 8.125 16.4104 8.43437 16.4104 8.8125V10.1875C16.4104 10.5656 16.0931 10.875 15.7052 10.875H14.295C13.9072 10.875 13.5899 10.5656 13.5899 10.1875V8.8125ZM18.5258 8.125H19.936C20.3238 8.125 20.6411 8.43437 20.6411 8.8125V10.1875C20.6411 10.5656 20.3238 10.875 19.936 10.875H18.5258C18.1379 10.875 17.8206 10.5656 17.8206 10.1875V8.8125C17.8206 8.43437 18.1379 8.125 18.5258 8.125Z" fill="black"/>
</svg>
