<svg width="30" height="30" viewBox="0 0 30 30" fill="none" xmlns="http://www.w3.org/2000/svg">
<path d="M21.8759 12.9362C21.8759 14.9082 21.2356 16.7298 20.157 18.2077L25.5971 23.651C26.1343 24.1881 26.1343 25.0602 25.5971 25.5972C25.06 26.1343 24.1877 26.1343 23.6506 25.5972L18.2105 20.1539C16.7323 21.2365 14.9103 21.8724 12.9379 21.8724C8.00059 21.8724 4 17.8726 4 12.9362C4 7.9998 8.00059 4 12.9379 4C17.8753 4 21.8759 7.9998 21.8759 12.9362ZM12.9379 19.1228C13.7505 19.1228 14.5552 18.9628 15.3059 18.6519C16.0566 18.341 16.7388 17.8853 17.3134 17.3108C17.888 16.7363 18.3438 16.0543 18.6547 15.3037C18.9657 14.5531 19.1257 13.7486 19.1257 12.9362C19.1257 12.1238 18.9657 11.3193 18.6547 10.5687C18.3438 9.81809 17.888 9.13609 17.3134 8.56161C16.7388 7.98713 16.0566 7.53143 15.3059 7.22052C14.5552 6.90962 13.7505 6.7496 12.9379 6.7496C12.1253 6.7496 11.3207 6.90962 10.57 7.22052C9.81923 7.53143 9.13709 7.98713 8.5625 8.56161C7.98791 9.13609 7.53212 9.81809 7.22115 10.5687C6.91019 11.3193 6.75013 12.1238 6.75013 12.9362C6.75013 13.7486 6.91019 14.5531 7.22115 15.3037C7.53212 16.0543 7.98791 16.7363 8.5625 17.3108C9.13709 17.8853 9.81923 18.341 10.57 18.6519C11.3207 18.9628 12.1253 19.1228 12.9379 19.1228Z" fill="black"/>
</svg>
