<svg width="30" height="30" viewBox="0 0 30 30" fill="none" xmlns="http://www.w3.org/2000/svg">
<path d="M21.8746 12.9362C21.8746 14.9082 21.2344 16.7298 20.1561 18.2077L25.5951 23.651C26.1322 24.1881 26.1322 25.0602 25.5951 25.5972C25.0581 26.1343 24.186 26.1343 23.6489 25.5972L18.2099 20.1539C16.732 21.2365 14.9104 21.8724 12.9384 21.8724C8.002 21.8724 4.0022 17.8726 4.0022 12.9362C4.0022 7.9998 8.002 4 12.9384 4C17.8748 4 21.8746 7.9998 21.8746 12.9362ZM8.47029 13.2799V16.0295C8.47029 16.6009 8.92999 17.0606 9.50139 17.0606C10.0728 17.0606 10.5325 16.6009 10.5325 16.0295V13.2799C10.5325 12.7085 10.0728 12.2488 9.50139 12.2488C8.92999 12.2488 8.47029 12.7085 8.47029 13.2799ZM11.9073 9.1555V16.0295C11.9073 16.6009 12.367 17.0606 12.9384 17.0606C13.5098 17.0606 13.9695 16.6009 13.9695 16.0295V9.1555C13.9695 8.58409 13.5098 8.1244 12.9384 8.1244C12.367 8.1244 11.9073 8.58409 11.9073 9.1555ZM15.3443 11.9051V16.0295C15.3443 16.6009 15.804 17.0606 16.3754 17.0606C16.9468 17.0606 17.4065 16.6009 17.4065 16.0295V11.9051C17.4065 11.3337 16.9468 10.874 16.3754 10.874C15.804 10.874 15.3443 11.3337 15.3443 11.9051Z" fill="black"/>
</svg>
