<svg width="30" height="30" viewBox="0 0 30 30" fill="none" xmlns="http://www.w3.org/2000/svg">
<path d="M25.3489 7.75714C26.2079 6.89817 26.2079 5.5032 25.3489 4.64423C24.4899 3.78526 23.095 3.78526 22.236 4.64423L15 11.8871L7.75714 4.6511C6.89817 3.79213 5.5032 3.79213 4.64423 4.6511C3.78526 5.51007 3.78526 6.90504 4.64423 7.76402L11.8871 15L4.6511 22.2429C3.79213 23.1018 3.79213 24.4968 4.6511 25.3558C5.51007 26.2147 6.90504 26.2147 7.76402 25.3558L15 18.1129L22.2429 25.3489C23.1018 26.2079 24.4968 26.2079 25.3558 25.3489C26.2147 24.4899 26.2147 23.095 25.3558 22.236L18.1129 15L25.3489 7.75714Z" fill="black"/>
</svg>
