<svg width="24" height="24" viewBox="0 0 24 24" fill="none" xmlns="http://www.w3.org/2000/svg">
<path d="M19.3939 2H3.93266C2.8697 2 2 2.86817 2 3.92926V19.3633C2 19.875 2.20362 20.3657 2.56606 20.7275C2.92851 21.0893 3.42008 21.2926 3.93266 21.2926H19.3939C20.4665 21.2926 21.3266 20.4341 21.3266 19.3633V3.92926C21.3266 3.41759 21.123 2.92687 20.7605 2.56507C20.3981 2.20326 19.9065 2 19.3939 2ZM3.93266 5.85852L5.86532 3.92926H10.6003L3.93266 10.5852V5.85852ZM3.93266 13.2862L13.306 3.92926H18.0411L3.93266 18.0129V13.2862ZM19.3939 17.4341L17.4613 19.3633H12.7262L19.3939 12.7074V17.4341ZM19.3939 10.0064L10.0205 19.3633H5.28552L19.3939 5.27974V10.0064Z" fill="#131927"/>
</svg>
