<svg width="24" height="24" viewBox="0 0 24 24" fill="none" xmlns="http://www.w3.org/2000/svg">
<path d="M20.2703 16.7202V7.74325C20.769 7.61546 21.225 7.35799 21.592 6.99697C21.959 6.63596 22.2239 6.18426 22.3599 5.68774C22.4958 5.19122 22.498 4.66756 22.3661 4.16995C22.2342 3.67233 21.973 3.21847 21.609 2.85445C21.245 2.49044 20.7911 2.22923 20.2935 2.09735C19.7959 1.96547 19.2722 1.96762 18.7757 2.10358C18.2792 2.23954 17.8275 2.50446 17.4665 2.87145C17.1054 3.23844 16.848 3.69443 16.7202 4.19311H7.74325C7.61546 3.69443 7.35799 3.23844 6.99697 2.87145C6.63596 2.50446 6.18426 2.23954 5.68774 2.10358C5.19122 1.96762 4.66756 1.96547 4.16995 2.09735C3.67233 2.22923 3.21847 2.49044 2.85445 2.85445C2.49044 3.21847 2.22923 3.67233 2.09735 4.16995C1.96547 4.66756 1.96762 5.19122 2.10358 5.68774C2.23954 6.18426 2.50446 6.63596 2.87145 6.99697C3.23844 7.35799 3.69443 7.61546 4.19311 7.74325V16.7202C3.69443 16.848 3.23844 17.1054 2.87145 17.4665C2.50446 17.8275 2.23954 18.2792 2.10358 18.7757C1.96762 19.2722 1.96547 19.7959 2.09735 20.2935C2.22923 20.7911 2.49044 21.245 2.85445 21.609C3.21847 21.973 3.67233 22.2342 4.16995 22.3661C4.66756 22.498 5.19122 22.4958 5.68774 22.3599C6.18426 22.2239 6.63596 21.959 6.99697 21.592C7.35799 21.225 7.61546 20.769 7.74325 20.2703H16.7202C16.848 20.769 17.1054 21.225 17.4665 21.592C17.8275 21.959 18.2792 22.2239 18.7757 22.3599C19.2722 22.4958 19.7959 22.498 20.2935 22.3661C20.7911 22.2342 21.245 21.973 21.609 21.609C21.973 21.245 22.2342 20.7911 22.3661 20.2935C22.498 19.7959 22.4958 19.2722 22.3599 18.7757C22.2239 18.2792 21.959 17.8275 21.592 17.4665C21.225 17.1054 20.769 16.848 20.2703 16.7202ZM19.5395 3.46233C19.8286 3.46233 20.1112 3.54805 20.3515 3.70865C20.5919 3.86925 20.7792 4.09751 20.8898 4.36458C21.0005 4.63165 21.0294 4.92552 20.973 5.20903C20.9166 5.49255 20.7774 5.75297 20.573 5.95738C20.3686 6.16178 20.1082 6.30098 19.8247 6.35738C19.5412 6.41377 19.2473 6.38483 18.9802 6.27421C18.7132 6.16358 18.4849 5.97625 18.3243 5.7359C18.1637 5.49554 18.078 5.21297 18.078 4.9239C18.078 4.53627 18.232 4.16451 18.5061 3.89041C18.7802 3.61632 19.1519 3.46233 19.5395 3.46233ZM3.46233 4.9239C3.46233 4.63483 3.54805 4.35225 3.70865 4.1119C3.86925 3.87154 4.09751 3.68421 4.36458 3.57359C4.63165 3.46296 4.92552 3.43402 5.20903 3.49042C5.49255 3.54681 5.75297 3.68601 5.95738 3.89041C6.16178 4.09482 6.30098 4.35524 6.35738 4.63876C6.41377 4.92228 6.38483 5.21615 6.27421 5.48321C6.16358 5.75028 5.97625 5.97854 5.7359 6.13914C5.49554 6.29974 5.21297 6.38546 4.9239 6.38546C4.53627 6.38546 4.16451 6.23147 3.89041 5.95738C3.61632 5.68328 3.46233 5.31153 3.46233 4.9239ZM4.9239 21.0011C4.63483 21.0011 4.35225 20.9154 4.1119 20.7548C3.87154 20.5942 3.68421 20.3659 3.57359 20.0989C3.46296 19.8318 3.43402 19.5379 3.49042 19.2544C3.54681 18.9709 3.68601 18.7105 3.89041 18.5061C4.09482 18.3017 4.35524 18.1625 4.63876 18.1061C4.92228 18.0497 5.21615 18.0786 5.48321 18.1892C5.75028 18.2999 5.97854 18.4872 6.13914 18.7275C6.29974 18.9679 6.38546 19.2505 6.38546 19.5395C6.38546 19.9272 6.23147 20.2989 5.95738 20.573C5.68328 20.8471 5.31153 21.0011 4.9239 21.0011ZM16.7202 18.8088H7.74325C7.61193 18.3065 7.34924 17.8483 6.98217 17.4813C6.6151 17.1142 6.15691 16.8515 5.65468 16.7202V7.74325C6.15691 7.61193 6.6151 7.34924 6.98217 6.98217C7.34924 6.6151 7.61193 6.15691 7.74325 5.65468H16.7202C16.8515 6.15691 17.1142 6.6151 17.4813 6.98217C17.8483 7.34924 18.3065 7.61193 18.8088 7.74325V16.7202C18.3062 16.8508 17.8476 17.1133 17.4804 17.4804C17.1133 17.8476 16.8508 18.3062 16.7202 18.8088ZM19.5395 21.0011C19.2505 21.0011 18.9679 20.9154 18.7275 20.7548C18.4872 20.5942 18.2999 20.3659 18.1892 20.0989C18.0786 19.8318 18.0497 19.5379 18.1061 19.2544C18.1625 18.9709 18.3017 18.7105 18.5061 18.5061C18.7105 18.3017 18.9709 18.1625 19.2544 18.1061C19.5379 18.0497 19.8318 18.0786 20.0989 18.1892C20.3659 18.2999 20.5942 18.4872 20.7548 18.7275C20.9154 18.9679 21.0011 19.2505 21.0011 19.5395C21.0005 19.927 20.8464 20.2984 20.5724 20.5724C20.2984 20.8464 19.927 21.0005 19.5395 21.0011Z" fill="#131927"/>
</svg>
