<svg width="24" height="24" viewBox="0 0 24 24" fill="none" xmlns="http://www.w3.org/2000/svg">
<path opacity="0.3" d="M12.0789 21.1577C17.093 21.1577 21.1577 17.093 21.1577 12.0789C21.1577 7.06475 17.093 3 12.0789 3C7.06475 3 3 7.06475 3 12.0789C3 17.093 7.06475 21.1577 12.0789 21.1577Z" fill="#B0B167"/>
<path d="M12.0789 3C7.05825 3 3 7.05825 3 12.0789C3 17.0995 7.05825 21.1577 12.0789 21.1577C17.0995 21.1577 21.1577 17.0995 21.1577 12.0789C21.1577 7.05825 17.0995 3 12.0789 3ZM12.0789 19.342C8.06601 19.342 4.81577 16.0917 4.81577 12.0789C4.81577 8.06601 8.06601 4.81577 12.0789 4.81577C16.0917 4.81577 19.342 8.06601 19.342 12.0789C19.342 16.0917 16.0917 19.342 12.0789 19.342Z" fill="#B0B167"/>
</svg>
