<svg width="24" height="24" viewBox="0 0 24 24" fill="none" xmlns="http://www.w3.org/2000/svg">
<path d="M4.85753 23.0565L4.18208 21.9193C3.13935 20.1635 4.15973 17.9054 6.16655 17.5278L7.94276 17.1935V9.12295C7.94276 7.81172 9.00572 6.74878 10.3169 6.74878C11.6281 6.74878 12.6911 7.81172 12.6911 9.12295V14.6301H15.2434C17.6795 14.6301 19.6543 16.6049 19.6543 19.041V23.0565" stroke="#B0B167" stroke-width="1.5" stroke-linecap="round" stroke-linejoin="round"/>
<path d="M2.94266 2.6844C2.58763 2.6844 2.2998 2.39657 2.2998 2.04154C2.2998 1.6865 2.58763 1.39868 2.94266 1.39868" stroke="#B0B167" stroke-width="1.5" stroke-linecap="round" stroke-linejoin="round"/>
<path d="M2.94263 2.6844C3.29767 2.6844 3.58548 2.39657 3.58548 2.04154C3.58548 1.6865 3.29767 1.39868 2.94263 1.39868" stroke="#B0B167" stroke-width="1.5" stroke-linecap="round" stroke-linejoin="round"/>
<path d="M10.2443 2.6844C9.88927 2.6844 9.60144 2.39657 9.60144 2.04154C9.60144 1.6865 9.88927 1.39868 10.2443 1.39868" stroke="#B0B167" stroke-width="1.5" stroke-linecap="round" stroke-linejoin="round"/>
<path d="M10.2443 2.6844C10.5993 2.6844 10.8871 2.39657 10.8871 2.04154C10.8871 1.6865 10.5993 1.39868 10.2443 1.39868" stroke="#B0B167" stroke-width="1.5" stroke-linecap="round" stroke-linejoin="round"/>
<path d="M22.0003 2.6844C21.6453 2.6844 21.3574 2.39657 21.3574 2.04154C21.3574 1.6865 21.6453 1.39868 22.0003 1.39868" stroke="#B0B167" stroke-width="1.5" stroke-linecap="round" stroke-linejoin="round"/>
<path d="M22.0002 2.6844C22.3553 2.6844 22.6431 2.39657 22.6431 2.04154C22.6431 1.6865 22.3553 1.39868 22.0002 1.39868" stroke="#B0B167" stroke-width="1.5" stroke-linecap="round" stroke-linejoin="round"/>
<path d="M22.0003 8.83332C21.6453 8.83332 21.3574 8.54551 21.3574 8.19046C21.3574 7.83544 21.6453 7.54761 22.0003 7.54761" stroke="#B0B167" stroke-width="1.5" stroke-linecap="round" stroke-linejoin="round"/>
<path d="M22.0002 8.83332C22.3553 8.83332 22.6431 8.54551 22.6431 8.19046C22.6431 7.83544 22.3553 7.54761 22.0002 7.54761" stroke="#B0B167" stroke-width="1.5" stroke-linecap="round" stroke-linejoin="round"/>
<path d="M17.0332 8.83332C16.6782 8.83332 16.3904 8.54551 16.3904 8.19046C16.3904 7.83544 16.6782 7.54761 17.0332 7.54761" stroke="#B0B167" stroke-width="1.5" stroke-linecap="round" stroke-linejoin="round"/>
<path d="M17.0332 8.83332C17.3882 8.83332 17.676 8.54551 17.676 8.19046C17.676 7.83544 17.3882 7.54761 17.0332 7.54761" stroke="#B0B167" stroke-width="1.5" stroke-linecap="round" stroke-linejoin="round"/>
<path d="M2.94205 8.83332C2.58701 8.83332 2.29919 8.54551 2.29919 8.19046C2.29919 7.83544 2.58701 7.54761 2.94205 7.54761" stroke="#B0B167" stroke-width="1.5" stroke-linecap="round" stroke-linejoin="round"/>
<path d="M2.94202 8.83332C3.29705 8.83332 3.58487 8.54551 3.58487 8.19046C3.58487 7.83544 3.29705 7.54761 2.94202 7.54761" stroke="#B0B167" stroke-width="1.5" stroke-linecap="round" stroke-linejoin="round"/>
<path d="M2.94205 14.9512C2.58701 14.9512 2.29919 14.6634 2.29919 14.3084C2.29919 13.9533 2.58701 13.6655 2.94205 13.6655" stroke="#B0B167" stroke-width="1.5" stroke-linecap="round" stroke-linejoin="round"/>
<path d="M2.94202 14.9512C3.29705 14.9512 3.58487 14.6634 3.58487 14.3084C3.58487 13.9533 3.29705 13.6655 2.94202 13.6655" stroke="#B0B167" stroke-width="1.5" stroke-linecap="round" stroke-linejoin="round"/>
</svg>
