<svg width="24" height="24" viewBox="0 0 24 24" fill="none" xmlns="http://www.w3.org/2000/svg">
<path opacity="0.2" d="M22.4275 12.2137C22.4275 14.2338 21.8284 16.2085 20.7061 17.8882C19.5838 19.5678 17.9887 20.8769 16.1224 21.65C14.256 22.423 12.2024 22.6253 10.2211 22.2312C8.23986 21.8371 6.41995 20.8643 4.99154 19.4359C3.56312 18.0075 2.59036 16.1876 2.19626 14.2063C1.80216 12.2251 2.00443 10.1714 2.77748 8.3051C3.55053 6.43879 4.85965 4.84362 6.53929 3.72132C8.21893 2.59903 10.1936 2 12.2137 2C14.9226 2 17.5205 3.07609 19.4359 4.99153C21.3514 6.90698 22.4275 9.50488 22.4275 12.2137Z" fill="#B0B167"/>
<path d="M14.767 12.2136C14.767 12.7186 14.6173 13.2123 14.3367 13.6322C14.0561 14.0521 13.6573 14.3794 13.1907 14.5726C12.7242 14.7659 12.2108 14.8165 11.7154 14.718C11.2201 14.6194 10.7651 14.3762 10.408 14.0191C10.0509 13.662 9.80775 13.2071 9.70922 12.7117C9.6107 12.2164 9.66126 11.703 9.85453 11.2364C10.0478 10.7699 10.3751 10.3711 10.795 10.0905C11.2149 9.80991 11.7086 9.66016 12.2136 9.66016C12.8908 9.66016 13.5403 9.92918 14.0191 10.408C14.498 10.8869 14.767 11.5364 14.767 12.2136Z" fill="#B0B167"/>
</svg>
