<svg width="24" height="24" viewBox="0 0 24 24" fill="none" xmlns="http://www.w3.org/2000/svg">
<g clip-path="url(#clip0_1909_1457)">
<path d="M12 23.1429C18.1541 23.1429 23.1429 18.1541 23.1429 12C23.1429 5.84601 18.1541 0.857178 12 0.857178C5.84601 0.857178 0.857178 5.84601 0.857178 12C0.857178 18.1541 5.84601 23.1429 12 23.1429Z" stroke="#B0B167" stroke-width="1.5" stroke-linecap="round" stroke-linejoin="round"/>
<path d="M11.1429 15.4286C13.5098 15.4286 15.4286 13.5098 15.4286 11.1429C15.4286 8.77596 13.5098 6.85718 11.1429 6.85718C8.77596 6.85718 6.85718 8.77596 6.85718 11.1429C6.85718 13.5098 8.77596 15.4286 11.1429 15.4286Z" stroke="#B0B167" stroke-width="1.5" stroke-linecap="round" stroke-linejoin="round"/>
<path d="M17.1429 17.1429L14.1772 14.1772" stroke="#B0B167" stroke-width="1.5" stroke-linecap="round" stroke-linejoin="round"/>
</g>
<defs>
<clipPath id="clip0_1909_1457">
<rect width="24" height="24" fill="white"/>
</clipPath>
</defs>
</svg>
